<svg width="135" height="24" viewBox="0 0 135 24" fill="none" xmlns="http://www.w3.org/2000/svg">
<path d="M1.56476 23.5V5.996L0.924761 2.796L1.56476 0.844H11.1008C12.6368 0.844 14.1088 0.993333 15.5168 1.292C16.9461 1.56933 18.2154 2.10266 19.3248 2.892C20.4554 3.68133 21.3408 4.812 21.9808 6.284C22.6421 7.756 22.9728 9.66533 22.9728 12.012C22.9728 14.3587 22.6421 16.2893 21.9808 17.804C21.3194 19.2973 20.4234 20.46 19.2928 21.292C18.1621 22.124 16.8821 22.7 15.4528 23.02C14.0448 23.34 12.5941 23.5 11.1008 23.5H1.56476ZM7.38876 18.38H11.1008C12.9781 18.38 14.4181 17.8893 15.4208 16.908C16.4234 15.9053 16.9248 14.2733 16.9248 12.012C16.9248 9.75067 16.4128 8.18267 15.3888 7.308C14.3861 6.412 12.9568 5.964 11.1008 5.964H7.38876V18.38ZM36.3828 23.82C35.0174 23.82 33.6841 23.66 32.3828 23.34C31.1028 22.9987 29.9401 22.4013 28.8948 21.548C27.8708 20.6947 27.0494 19.5107 26.4308 17.996C25.8334 16.4813 25.5348 14.54 25.5348 12.172C25.5348 9.804 25.8334 7.86267 26.4308 6.348C27.0494 4.83333 27.8708 3.64933 28.8948 2.796C29.9401 1.94267 31.1028 1.356 32.3828 1.036C33.6841 0.694665 35.0174 0.523998 36.3828 0.523998C37.7481 0.523998 39.0708 0.694665 40.3508 1.036C41.6521 1.37733 42.8148 1.97467 43.8388 2.828C44.8841 3.68133 45.7054 4.86533 46.3028 6.38C46.9214 7.89467 47.2308 9.82533 47.2308 12.172C47.2308 14.5187 46.9214 16.4493 46.3028 17.964C45.7054 19.4787 44.8841 20.6627 43.8388 21.516C42.8148 22.3693 41.6521 22.9667 40.3508 23.308C39.0708 23.6493 37.7481 23.82 36.3828 23.82ZM36.3828 18.38C37.9614 18.38 39.1561 17.9107 39.9668 16.972C40.7774 16.0333 41.1828 14.4333 41.1828 12.172C41.1828 9.91067 40.7774 8.31067 39.9668 7.372C39.1561 6.43333 37.9614 5.964 36.3828 5.964C34.8254 5.964 33.6414 6.444 32.8308 7.404C32.0201 8.364 31.6148 9.95333 31.6148 12.172C31.6148 14.3907 32.0201 15.98 32.8308 16.94C33.6414 17.9 34.8254 18.38 36.3828 18.38ZM61.9128 23.82C60.2701 23.82 58.7128 23.66 57.2408 23.34C55.7901 22.9987 54.4994 22.4013 53.3688 21.548C52.2594 20.6947 51.3848 19.5107 50.7448 17.996C50.1048 16.4813 49.7848 14.54 49.7848 12.172C49.7848 9.88933 50.1261 8.00133 50.8088 6.508C51.4914 4.99333 52.3981 3.79867 53.5288 2.924C54.6808 2.04933 55.9501 1.43067 57.3368 1.068C58.7448 0.705332 60.1634 0.523998 61.5928 0.523998C62.6381 0.523998 63.5448 0.577332 64.3128 0.683998C65.0808 0.790666 65.8168 0.929333 66.5208 1.1L70.8728 3.628L68.6328 8.588L61.5608 6.092C60.5368 6.092 59.5874 6.29467 58.7128 6.7C57.8594 7.10533 57.1661 7.756 56.6328 8.652C56.1208 9.52667 55.8648 10.7107 55.8648 12.204C55.8648 14.6147 56.3981 16.3107 57.4648 17.292C58.5528 18.252 60.0354 18.732 61.9128 18.732C62.8728 18.732 63.6194 18.6893 64.1528 18.604C64.7074 18.4973 65.1341 18.412 65.4328 18.348V15.916H61.3688V11.18H71.5448L71.8968 13.1L71.1928 15.756V22.476C70.9581 22.5613 70.4248 22.7107 69.5928 22.924C68.7821 23.1373 67.7154 23.34 66.3928 23.532C65.0914 23.724 63.5981 23.82 61.9128 23.82ZM82.3363 23.74C81.3923 23.74 80.4403 23.604 79.4803 23.332C78.5363 23.06 77.6643 22.604 76.8643 21.964C76.0803 21.308 75.4483 20.42 74.9683 19.3C74.4883 18.164 74.2483 16.732 74.2483 15.004C74.2483 13.26 74.5843 11.74 75.2563 10.444C75.9443 9.132 76.8803 8.108 78.0643 7.372C79.2483 6.636 80.5923 6.268 82.0963 6.268C82.8163 6.268 83.5043 6.332 84.1603 6.46C84.8323 6.588 85.3443 6.732 85.6963 6.892L88.3603 9.316L86.6803 11.836L82.5763 9.724C81.6803 9.724 80.8723 9.94 80.1523 10.372C79.4323 10.804 78.8563 11.42 78.4243 12.22C78.0083 13.004 77.8003 13.932 77.8003 15.004C77.8003 16.236 78.0163 17.252 78.4483 18.052C78.8963 18.852 79.5043 19.452 80.2723 19.852C81.0403 20.236 81.8963 20.428 82.8403 20.428C83.8003 20.428 84.6243 20.348 85.3123 20.188C86.0003 20.012 86.5763 19.82 87.0403 19.612C87.5043 19.388 87.8563 19.196 88.0963 19.036V22.3C87.6483 22.604 86.9603 22.924 86.0323 23.26C85.1203 23.58 83.8883 23.74 82.3363 23.74ZM91.1435 23.5L90.6635 22.06L91.1435 19.66V6.508H94.5035V16.372L94.2635 20.38H94.7435L99.9995 20.14L101.704 19.9L103.336 21.964L102.16 23.5H91.1435ZM110.825 23.74C109.177 23.74 107.881 23.468 106.937 22.924C106.009 22.38 105.345 21.58 104.945 20.524C104.561 19.452 104.369 18.148 104.369 16.612V10.372L104.393 7.948L104.369 6.508H107.777V16.852C107.777 17.972 108.001 18.884 108.449 19.588C108.897 20.276 109.689 20.62 110.825 20.62C111.961 20.62 112.761 20.3 113.225 19.66C113.705 19.004 113.945 18.068 113.945 16.852V6.508H117.281V16.612C117.281 18.116 117.089 19.404 116.705 20.476C116.337 21.532 115.681 22.34 114.737 22.9C113.809 23.46 112.505 23.74 110.825 23.74ZM120.394 23.5V10.348L119.914 7.948L120.394 6.508H126.634C127.85 6.508 128.898 6.652 129.778 6.94C130.674 7.212 131.37 7.66 131.866 8.284C132.362 8.908 132.61 9.74 132.61 10.78C132.61 11.42 132.498 12.028 132.274 12.604C132.066 13.164 131.706 13.636 131.194 14.02C132.202 14.372 132.97 14.9 133.498 15.604C134.026 16.308 134.29 17.244 134.29 18.412C134.29 20.188 133.794 21.484 132.802 22.3C131.81 23.1 130.314 23.5 128.314 23.5H120.394ZM123.754 13.348H127.066C128.41 13.348 129.082 12.756 129.082 11.572C129.082 10.98 128.946 10.508 128.674 10.156C128.402 9.804 127.866 9.628 127.066 9.628H123.754V13.348ZM123.754 20.38H128.074C128.922 20.38 129.538 20.188 129.922 19.804C130.322 19.42 130.522 18.884 130.522 18.196C130.522 17.54 130.306 17.044 129.874 16.708C129.458 16.372 128.778 16.204 127.834 16.204H123.754V20.38Z" fill="#FF9F0E"/>
</svg>
