<svg width="88" height="40" viewBox="0 0 88 40" fill="none" xmlns="http://www.w3.org/2000/svg">
<path d="M20 26.6667C21.7681 26.6667 23.4638 25.9643 24.714 24.7141C25.9643 23.4638 26.6666 21.7682 26.6666 20C26.6666 18.2319 25.9643 16.5362 24.714 15.286C23.4638 14.0358 21.7681 13.3334 20 13.3334C18.2319 13.3334 16.5362 14.0358 15.2859 15.286C14.0357 16.5362 13.3333 18.2319 13.3333 20C13.3333 21.7682 14.0357 23.4638 15.2859 24.7141C16.5362 25.9643 18.2319 26.6667 20 26.6667Z" stroke="#FF9F0E" stroke-width="2.625" stroke-linecap="round" stroke-linejoin="round"/>
<path d="M5 26.6667V13.3333C5 11.1232 5.87797 9.00358 7.44078 7.44078C9.00358 5.87797 11.1232 5 13.3333 5H26.6667C28.8768 5 30.9964 5.87797 32.5592 7.44078C34.122 9.00358 35 11.1232 35 13.3333V26.6667C35 28.8768 34.122 30.9964 32.5592 32.5592C30.9964 34.122 28.8768 35 26.6667 35H13.3333C11.1232 35 9.00358 34.122 7.44078 32.5592C5.87797 30.9964 5 28.8768 5 26.6667Z" stroke="#FF9F0E" stroke-width="2.625"/>
<path d="M29.1667 10.8509L29.1842 10.8317" stroke="#FF9F0E" stroke-width="2.625" stroke-linecap="round" stroke-linejoin="round"/>
<path d="M84.25 20C84.25 16.7861 83.297 13.6443 81.5114 10.972C79.7258 8.29969 77.1879 6.21689 74.2186 4.98696C71.2493 3.75704 67.982 3.43524 64.8298 4.06225C61.6776 4.68926 58.7821 6.23692 56.5095 8.50952C54.2369 10.7821 52.6893 13.6776 52.0622 16.8298C51.4352 19.982 51.757 23.2493 52.987 26.2186C54.2169 29.1879 56.2997 31.7258 58.972 33.5114C61.6443 35.297 64.7861 36.25 68 36.25C72.3085 36.2459 76.4394 34.5325 79.4859 31.4859C82.5325 28.4394 84.2459 24.3085 84.25 20ZM69.25 33.6875V23.75H73C73.3315 23.75 73.6495 23.6183 73.8839 23.3839C74.1183 23.1495 74.25 22.8315 74.25 22.5C74.25 22.1685 74.1183 21.8505 73.8839 21.6161C73.6495 21.3817 73.3315 21.25 73 21.25H69.25V17.5C69.25 16.837 69.5134 16.2011 69.9822 15.7322C70.4511 15.2634 71.087 15 71.75 15H74.25C74.5815 15 74.8995 14.8683 75.1339 14.6339C75.3683 14.3995 75.5 14.0815 75.5 13.75C75.5 13.4185 75.3683 13.1005 75.1339 12.8661C74.8995 12.6317 74.5815 12.5 74.25 12.5H71.75C70.4252 12.5041 69.1558 13.0322 68.219 13.969C67.2822 14.9058 66.7541 16.1752 66.75 17.5V21.25H63C62.6685 21.25 62.3505 21.3817 62.1161 21.6161C61.8817 21.8505 61.75 22.1685 61.75 22.5C61.75 22.8315 61.8817 23.1495 62.1161 23.3839C62.3505 23.6183 62.6685 23.75 63 23.75H66.75V33.6875C63.2262 33.3658 59.9621 31.6981 57.6366 29.0312C55.3111 26.3643 54.1032 22.9035 54.2642 19.3688C54.4253 15.834 55.9427 12.4974 58.5011 10.053C61.0594 7.60854 64.4616 6.24444 68 6.24444C71.5384 6.24444 74.9406 7.60854 77.499 10.053C80.0573 12.4974 81.5748 15.834 81.7358 19.3688C81.8968 22.9035 80.6889 26.3643 78.3634 29.0312C76.0379 31.6981 72.7738 33.3658 69.25 33.6875Z" fill="#FF9F0E"/>
</svg>
