<svg width="192" height="14" viewBox="0 0 192 14" fill="none" xmlns="http://www.w3.org/2000/svg">
<path d="M31.7944 6.01522C32.1592 5.18766 31.9604 3.96897 31.7944 3.06089C31.6653 2.28857 31.345 1.65144 30.8653 1.09133C30.3857 0.531216 29.6762 0.266287 29.0072 0.10655C28.4762 -0.030617 27.678 -0.0403334 27.149 0.10655C26.62 0.253433 26.6382 0.690601 26.2199 1.09133C25.1774 2.04183 23.8332 2.10917 22.5036 2.07611H9.49642C8.16681 2.10917 6.82261 2.04183 5.78009 1.09133C5.36184 0.690601 5.38001 0.253433 4.85101 0.10655C4.322 -0.0403334 3.52381 -0.030617 2.99284 0.10655C2.32383 0.266287 1.61433 0.531216 1.13468 1.09133C0.655025 1.65144 0.334742 2.28857 0.205595 3.06089C0.0395674 3.96897 -0.159162 5.18766 0.205595 6.01522C0.337797 6.31313 1.13468 6.66548 1.13468 7C1.13468 7.33452 0.337797 7.68687 0.205595 7.98478C-0.158407 8.81261 0.0403576 10.031 0.205595 10.9391C0.335077 11.7118 0.655162 12.3477 1.13468 12.9087C1.61419 13.4696 2.32372 13.7319 2.99284 13.8935C3.52381 14.0306 4.322 14.0403 4.85101 13.8935C5.38001 13.7466 5.36184 13.3094 5.78009 12.9087C6.82215 11.9566 8.16628 11.8929 9.49642 11.9239H22.5036C23.8337 11.8929 25.1779 11.9566 26.2199 12.9087C26.6382 13.3094 26.62 13.7466 27.149 13.8935C27.678 14.0403 28.4762 14.0306 29.0072 13.8935C29.6763 13.7319 30.3858 13.4696 30.8653 12.9087C31.3448 12.3477 31.6649 11.7118 31.7944 10.9391C31.9596 10.031 32.1584 8.81261 31.7944 7.98478C31.6622 7.68687 30.8653 7.33452 30.8653 7C30.8653 6.66548 31.6622 6.31313 31.7944 6.01522Z" fill="#FFAA00"/>
<path d="M71.7944 6.01522C72.1592 5.18766 71.9604 3.96897 71.7944 3.06089C71.6653 2.28857 71.345 1.65144 70.8653 1.09133C70.3857 0.531216 69.6762 0.266287 69.0072 0.10655C68.4762 -0.030617 67.678 -0.0403334 67.149 0.10655C66.62 0.253433 66.6382 0.690601 66.2199 1.09133C65.1774 2.04183 63.8332 2.10917 62.5036 2.07611H49.4964C48.1668 2.10917 46.8226 2.04183 45.7801 1.09133C45.3618 0.690601 45.38 0.253433 44.851 0.10655C44.322 -0.0403334 43.5238 -0.030617 42.9928 0.10655C42.3238 0.266287 41.6143 0.531216 41.1347 1.09133C40.655 1.65144 40.3347 2.28857 40.2056 3.06089C40.0396 3.96897 39.8408 5.18766 40.2056 6.01522C40.3378 6.31313 41.1347 6.66548 41.1347 7C41.1347 7.33452 40.3378 7.68687 40.2056 7.98478C39.8416 8.81261 40.0404 10.031 40.2056 10.9391C40.3351 11.7118 40.6552 12.3477 41.1347 12.9087C41.6142 13.4696 42.3237 13.7319 42.9928 13.8935C43.5238 14.0306 44.322 14.0403 44.851 13.8935C45.38 13.7466 45.3618 13.3094 45.7801 12.9087C46.8221 11.9566 48.1663 11.8929 49.4964 11.9239H62.5036C63.8337 11.8929 65.1779 11.9566 66.2199 12.9087C66.6382 13.3094 66.62 13.7466 67.149 13.8935C67.678 14.0403 68.4762 14.0306 69.0072 13.8935C69.6763 13.7319 70.3858 13.4696 70.8653 12.9087C71.3448 12.3477 71.6649 11.7118 71.7944 10.9391C71.9596 10.031 72.1584 8.81261 71.7944 7.98478C71.6622 7.68687 70.8653 7.33452 70.8653 7C70.8653 6.66548 71.6622 6.31313 71.7944 6.01522Z" fill="#FFAA00"/>
<path d="M111.794 6.01522C112.159 5.18766 111.96 3.96897 111.794 3.06089C111.665 2.28857 111.345 1.65144 110.865 1.09133C110.386 0.531216 109.676 0.266287 109.007 0.10655C108.476 -0.030617 107.678 -0.0403334 107.149 0.10655C106.62 0.253433 106.638 0.690601 106.22 1.09133C105.177 2.04183 103.833 2.10917 102.504 2.07611H89.4964C88.1668 2.10917 86.8226 2.04183 85.7801 1.09133C85.3618 0.690601 85.38 0.253433 84.851 0.10655C84.322 -0.0403334 83.5238 -0.030617 82.9928 0.10655C82.3238 0.266287 81.6143 0.531216 81.1347 1.09133C80.655 1.65144 80.3347 2.28857 80.2056 3.06089C80.0396 3.96897 79.8408 5.18766 80.2056 6.01522C80.3378 6.31313 81.1347 6.66548 81.1347 7C81.1347 7.33452 80.3378 7.68687 80.2056 7.98478C79.8416 8.81261 80.0404 10.031 80.2056 10.9391C80.3351 11.7118 80.6552 12.3477 81.1347 12.9087C81.6142 13.4696 82.3237 13.7319 82.9928 13.8935C83.5238 14.0306 84.322 14.0403 84.851 13.8935C85.38 13.7466 85.3618 13.3094 85.7801 12.9087C86.8221 11.9566 88.1663 11.8929 89.4964 11.9239H102.504C103.834 11.8929 105.178 11.9566 106.22 12.9087C106.638 13.3094 106.62 13.7466 107.149 13.8935C107.678 14.0403 108.476 14.0306 109.007 13.8935C109.676 13.7319 110.386 13.4696 110.865 12.9087C111.345 12.3477 111.665 11.7118 111.794 10.9391C111.96 10.031 112.158 8.81261 111.794 7.98478C111.662 7.68687 110.865 7.33452 110.865 7C110.865 6.66548 111.662 6.31313 111.794 6.01522Z" fill="#FFAA00"/>
<path d="M151.794 6.01522C152.159 5.18766 151.96 3.96897 151.794 3.06089C151.665 2.28857 151.345 1.65144 150.865 1.09133C150.386 0.531216 149.676 0.266287 149.007 0.10655C148.476 -0.030617 147.678 -0.0403334 147.149 0.10655C146.62 0.253433 146.638 0.690601 146.22 1.09133C145.177 2.04183 143.833 2.10917 142.504 2.07611H129.496C128.167 2.10917 126.823 2.04183 125.78 1.09133C125.362 0.690601 125.38 0.253433 124.851 0.10655C124.322 -0.0403334 123.524 -0.030617 122.993 0.10655C122.324 0.266287 121.614 0.531216 121.135 1.09133C120.655 1.65144 120.335 2.28857 120.206 3.06089C120.04 3.96897 119.841 5.18766 120.206 6.01522C120.338 6.31313 121.135 6.66548 121.135 7C121.135 7.33452 120.338 7.68687 120.206 7.98478C119.842 8.81261 120.04 10.031 120.206 10.9391C120.335 11.7118 120.655 12.3477 121.135 12.9087C121.614 13.4696 122.324 13.7319 122.993 13.8935C123.524 14.0306 124.322 14.0403 124.851 13.8935C125.38 13.7466 125.362 13.3094 125.78 12.9087C126.822 11.9566 128.166 11.8929 129.496 11.9239H142.504C143.834 11.8929 145.178 11.9566 146.22 12.9087C146.638 13.3094 146.62 13.7466 147.149 13.8935C147.678 14.0403 148.476 14.0306 149.007 13.8935C149.676 13.7319 150.386 13.4696 150.865 12.9087C151.345 12.3477 151.665 11.7118 151.794 10.9391C151.96 10.031 152.158 8.81261 151.794 7.98478C151.662 7.68687 150.865 7.33452 150.865 7C150.865 6.66548 151.662 6.31313 151.794 6.01522Z" fill="#FFAA00"/>
<path d="M191.794 6.01522C192.159 5.18766 191.96 3.96897 191.794 3.06089C191.665 2.28857 191.345 1.65144 190.865 1.09133C190.386 0.531216 189.676 0.266287 189.007 0.10655C188.476 -0.030617 187.678 -0.0403334 187.149 0.10655C186.62 0.253433 186.638 0.690601 186.22 1.09133C185.177 2.04183 183.833 2.10917 182.504 2.07611H169.496C168.167 2.10917 166.823 2.04183 165.78 1.09133C165.362 0.690601 165.38 0.253433 164.851 0.10655C164.322 -0.0403334 163.524 -0.030617 162.993 0.10655C162.324 0.266287 161.614 0.531216 161.135 1.09133C160.655 1.65144 160.335 2.28857 160.206 3.06089C160.04 3.96897 159.841 5.18766 160.206 6.01522C160.338 6.31313 161.135 6.66548 161.135 7C161.135 7.33452 160.338 7.68687 160.206 7.98478C159.842 8.81261 160.04 10.031 160.206 10.9391C160.335 11.7118 160.655 12.3477 161.135 12.9087C161.614 13.4696 162.324 13.7319 162.993 13.8935C163.524 14.0306 164.322 14.0403 164.851 13.8935C165.38 13.7466 165.362 13.3094 165.78 12.9087C166.822 11.9566 168.166 11.8929 169.496 11.9239H182.504C183.834 11.8929 185.178 11.9566 186.22 12.9087C186.638 13.3094 186.62 13.7466 187.149 13.8935C187.678 14.0403 188.476 14.0306 189.007 13.8935C189.676 13.7319 190.386 13.4696 190.865 12.9087C191.345 12.3477 191.665 11.7118 191.794 10.9391C191.96 10.031 192.158 8.81261 191.794 7.98478C191.662 7.68687 190.865 7.33452 190.865 7C190.865 6.66548 191.662 6.31313 191.794 6.01522Z" fill="#FFAA00"/>
</svg>
