<svg width="53" height="54" viewBox="0 0 53 54" fill="none" xmlns="http://www.w3.org/2000/svg">
<path d="M24.946 26.0381C27.6907 29.7908 31.6577 28.0067 37.1577 29.1625C45.1901 30.7085 48.348 26.7819 46.8719 22.9662C45.4431 19.3069 40.4209 19.1989 37.9649 15.8684C35.5089 12.5378 36.8257 7.31372 33.8252 4.84351C30.8247 2.3733 26.318 4.50163 25.507 12.9943C25.0136 18.8125 22.3481 22.2384 24.946 26.0381Z" fill="#FCB62A"/>
<path d="M29.2119 37.0857C30.3732 32.9755 33.5115 30.1018 36.0264 30.9964C38.5412 31.8909 39.7598 35.9193 38.4993 40.2313C37.338 44.3416 34.1996 47.2152 31.6848 46.3207C29.1699 45.4261 28.0975 41.3509 29.2119 37.0857Z" fill="#FCB62A"/>
<path d="M16.0353 18.7387C20.1881 18.7659 23.4474 16.3666 23.3793 13.5063C23.3111 10.6461 19.9053 8.34537 15.7992 8.47268C11.6464 8.44543 8.38701 10.8448 8.45518 13.705C8.47659 16.4107 11.8824 18.7114 16.0353 18.7387Z" fill="#FCB62A"/>
<path d="M16.3603 34.0011C19.4685 30.656 23.7221 29.4626 25.8152 31.4789C27.9084 33.4951 27.1126 37.9469 24.0043 41.292C20.896 44.6371 16.6425 45.8304 14.5493 43.8142C12.6064 41.7498 13.2983 37.4992 16.3603 34.0011Z" fill="#FCB62A"/>
<path d="M15.1423 31.8027C19.1259 29.6947 21.4588 25.9491 20.1343 23.2073C18.8558 20.6174 14.5884 20.1504 10.4543 22.3065C6.47068 24.4144 4.13778 28.16 5.46228 30.9018C6.74082 33.4917 11.1587 33.9106 15.1423 31.8027Z" fill="#FCB62A"/>
</svg>
