<svg width="43" height="43" viewBox="0 0 43 43" fill="none" xmlns="http://www.w3.org/2000/svg">
<path d="M20.9067 24.9364C21.1506 29.8966 24.7507 30.5288 28.1069 34.6967C33.0723 40.6549 37.0674 38.8854 37.7461 34.5878C38.3877 30.4588 34.8962 27.5121 34.6656 23.0986C34.435 18.6851 37.717 14.6945 36.7149 10.7523C35.7128 6.81016 31.5772 6.18396 27.1791 13.4257C24.2099 18.4221 20.7874 20.0169 20.9067 24.9364Z" fill="#FCB62A"/>
<path d="M13.398 12.7094C16.2091 14.9927 19.5552 14.1777 20.7453 11.6641C21.9354 9.15048 20.4972 4.74322 17.651 2.61928C14.8399 0.336067 11.4937 1.151 10.3036 3.66463C9.14857 6.01898 10.5868 10.4262 13.398 12.7094Z" fill="#FF9F0E"/>
<path d="M6.44751 25.4381C9.76275 25.6149 12.7786 23.3419 13.1492 20.025C13.4826 16.8768 11.0971 14.1082 7.6701 13.8948C4.35486 13.718 1.33903 15.991 0.968443 19.3079C0.635011 22.4561 3.13228 25.2612 6.44751 25.4381Z" fill="#FCB62A"/>
<path d="M8.02448 41.2664C11.0372 41.3319 14.0455 38.7511 14.4587 35.3999C14.8342 32.2198 12.9043 28.665 9.79067 28.5665C6.77793 28.501 3.76961 31.0817 3.35645 34.433C2.98096 37.6131 5.01174 41.2008 8.02448 41.2664Z" fill="#FFAA00"/>
</svg>
