<svg width="243" height="44" viewBox="0 0 243 44" fill="none" xmlns="http://www.w3.org/2000/svg">
<path d="M1.48 43V12.368L0.36 6.768L1.48 3.408H10.496L21.808 18.64L24.496 23.288H25.056V3.408H35.64V6.768L35.08 12.368V43H26.288L12.232 23.288H11.672V26.648L12.232 43H1.48ZM49.64 43.56C47.4 43.56 45.664 43.1307 44.432 42.272C43.2373 41.4133 42.3973 40.1813 41.912 38.576C41.464 36.9333 41.24 34.9733 41.24 32.696V16.512H51.32V31.24C51.32 32.6213 51.5813 33.704 52.104 34.488C52.664 35.272 53.4853 35.664 54.568 35.664C55.576 35.664 56.4907 35.2347 57.312 34.376C58.1707 33.5173 58.6 32.2667 58.6 30.624V16.512H68.68V33.984L69.856 39.584L68.68 43H59.216V40.256L58.656 39.976C58.1707 40.4613 57.4613 40.984 56.528 41.544C55.632 42.104 54.5867 42.5893 53.392 43C52.2347 43.3733 50.984 43.56 49.64 43.56ZM84.9152 43.56C82.3765 43.56 80.3419 42.8133 78.8112 41.32C77.2805 39.8267 76.5152 37.9413 76.5152 35.664V23.456H72.4272V18.136L75.9552 15.392L79.9312 8.448H86.5392V16.568H94.3792V23.848H86.5392V35.832L94.3792 35.776V41.88C94.3792 41.88 93.9312 42.0293 93.0352 42.328C92.1765 42.5893 91.0379 42.8507 89.6192 43.112C88.2005 43.4107 86.6325 43.56 84.9152 43.56ZM99.4551 43V25.472L98.2791 19.872L99.4551 16.512H107.071L108.191 17.8C108.191 17.8 108.452 17.6507 108.975 17.352C109.498 17.016 110.226 16.6987 111.159 16.4C112.13 16.1013 113.25 15.952 114.519 15.952C115.266 15.952 116.012 16.008 116.759 16.12C117.506 16.232 118.084 16.3813 118.495 16.568L122.135 19.648L118.495 26.816L111.103 23.736L109.423 24.296V43H99.4551ZM130.525 14.944L123.413 7.776L130.525 0.663998L137.637 7.776L130.525 14.944ZM125.485 43V24.464L124.309 19.984L125.429 16.568H135.565V43H125.485ZM151.525 43.56C148.986 43.56 146.951 42.8133 145.421 41.32C143.89 39.8267 143.125 37.9413 143.125 35.664V23.456H139.037V18.136L142.565 15.392L146.541 8.448H153.149V16.568H160.989V23.848H153.149V35.832L160.989 35.776V41.88C160.989 41.88 160.541 42.0293 159.645 42.328C158.786 42.5893 157.647 42.8507 156.229 43.112C154.81 43.4107 153.242 43.56 151.525 43.56ZM171.048 14.944L163.936 7.776L171.048 0.663998L178.16 7.776L171.048 14.944ZM166.008 43V24.464L164.832 19.984L165.952 16.568H176.088V43H166.008ZM194.736 43.56C190.181 43.56 186.653 42.4773 184.152 40.312C181.651 38.1467 180.4 34.6373 180.4 29.784C180.4 24.8933 181.651 21.384 184.152 19.256C186.653 17.0907 190.181 16.008 194.736 16.008C199.403 16.008 202.931 17.0907 205.32 19.256C207.747 21.384 208.96 24.8933 208.96 29.784C208.96 34.6373 207.747 38.1467 205.32 40.312C202.931 42.4773 199.403 43.56 194.736 43.56ZM194.736 36.28C196.267 36.28 197.331 35.72 197.928 34.6C198.525 33.4427 198.824 31.8373 198.824 29.784C198.824 27.6933 198.525 26.088 197.928 24.968C197.331 23.848 196.267 23.288 194.736 23.288C193.168 23.288 192.067 23.848 191.432 24.968C190.835 26.088 190.536 27.6933 190.536 29.784C190.536 31.8373 190.835 33.4427 191.432 34.6C192.067 35.72 193.168 36.28 194.736 36.28ZM213.696 43V26.144L212.576 19.984L214.312 16.568H222.656V18.976L223.16 19.312C223.571 18.9387 224.131 18.5093 224.84 18.024C225.587 17.5013 226.483 17.0347 227.528 16.624C228.573 16.2133 229.749 16.008 231.056 16.008C234.416 16.008 236.936 16.96 238.616 18.864C240.296 20.768 241.136 23.4373 241.136 26.872V33.984L242.312 39.584L241.136 43H231.056V28.328C231.056 26.9093 230.739 25.8267 230.104 25.08C229.507 24.296 228.555 23.904 227.248 23.904L223.776 24.968V43H213.696Z" fill="#FF9F0E"/>
</svg>
